<?xml version="1.0" encoding="UTF-8"?>
<svg width="42px" height="10px" viewBox="0 0 42 10" version="1.1" xmlns="http://www.w3.org/2000/svg" xmlns:xlink="http://www.w3.org/1999/xlink">
    <!-- Generator: Sketch 43.2 (39069) - http://www.bohemiancoding.com/sketch -->
    <title>Artboard</title>
    <desc>Created with Sketch.</desc>
    <defs></defs>
    <g id="Page-1" stroke="none" stroke-width="1" fill="none" fill-rule="evenodd">
        <g id="Artboard" fill-rule="nonzero" fill="#CC0000">
            <g id="Municipal_Flag_of_Chicago_-_userbox">
                <g id="Group">
                    <polygon id="Shape" points="37.355 0.241 38.125 3.595 41.414 2.583 38.893 4.926 41.414 7.269 38.125 6.258 37.355 9.611 36.588 6.258 33.299 7.269 35.819 4.926 33.299 2.583 36.588 3.595"></polygon>
                    <polygon id="Shape" points="26.477 0.241 27.244 3.595 30.535 2.583 28.014 4.926 30.535 7.269 27.244 6.258 26.477 9.611 25.709 6.258 22.418 7.269 24.939 4.926 22.418 2.583 25.709 3.595"></polygon>
                    <polygon id="Shape" points="15.597 0.241 16.365 3.595 19.655 2.583 17.134 4.926 19.655 7.269 16.365 6.258 15.597 9.611 14.829 6.258 11.539 7.269 14.06 4.926 11.539 2.583 14.829 3.595"></polygon>
                    <polygon id="Shape" points="4.717 0.241 5.485 3.595 8.775 2.583 6.254 4.926 8.775 7.269 5.485 6.258 4.717 9.611 3.949 6.258 0.659 7.269 3.18 4.926 0.659 2.583 3.949 3.595"></polygon>
                </g>
            </g>
        </g>
    </g>
</svg>